# xmcd
#
# Track frame offsets: 
#        150
#        39422
#        65262
#        114570
#        142442
#        172205
#
# Disc length: 2819 seconds
#
# Revision: 1
# Processed by: cddbd v1.4PL0 Copyright (c) Steve Scherf et al.
# Submitted via: ExactAudioCopy v0.90b2
#
DISCID=5a0b0106
DTITLE=Toots Thielemans - Toots Thielemans In Tokyo
DYEAR=1979
DGENRE=Jazz
TTITLE0=What Is This Thing Called Love
TTITLE1=Night Train
TTITLE2=Fallin' In Love With Love
TTITLE3=In The Wee Small Hours Of The Morning
TTITLE4=Shade Of Love
TTITLE5=Georgia On My Mind
EXTD=YEAR: 1979 ID3G: 0
EXTT0=
EXTT1=
EXTT2=
EXTT3=
EXTT4=
EXTT5=
PLAYORDER=
